<svg width="21" height="20" viewBox="0 0 21 20" fill="none" xmlns="http://www.w3.org/2000/svg">
<path d="M18.3676 9.55546C18.3674 13.5762 15.3608 16.9616 11.3683 17.4368V12.065H12.7794C12.9772 12.0661 13.1436 11.917 13.1642 11.7202L13.3165 10.5577C13.3271 10.4473 13.2924 10.3373 13.2203 10.253C13.1466 10.1658 13.0379 10.1159 12.9237 10.1167H11.3683V8.7537C11.3683 8.3109 11.7272 7.95194 12.17 7.95194H12.9718C13.0752 7.95409 13.1752 7.9145 13.2491 7.84209C13.323 7.76969 13.3647 7.67056 13.3646 7.56709V6.27626C13.3621 6.07542 13.2113 5.90748 13.0119 5.88339C13.0119 5.88339 12.4346 5.83529 11.7451 5.83529C10.0293 5.83529 9.08324 6.85352 9.08324 8.70559V10.1167H7.47971C7.26274 10.1167 7.08685 10.2926 7.08685 10.5096V11.6721C7.08685 11.8891 7.26274 12.065 7.47971 12.065H9.03513V17.3726C4.8912 16.6379 2.03897 12.7994 2.53127 8.61976C3.02357 4.4401 6.6896 1.36933 10.8908 1.61756C15.0921 1.86579 18.371 5.34691 18.3676 9.55546Z" fill="black"/>
</svg>
