<svg width="20" height="20" viewBox="0 0 20 20" fill="none" xmlns="http://www.w3.org/2000/svg">
<path d="M9.49286 7.25594C8.25301 7.25594 7.24792 8.26103 7.24792 9.50087C7.24792 10.7407 8.25301 11.7458 9.49286 11.7458C10.7327 11.7458 11.7378 10.7407 11.7378 9.50087C11.7399 8.90483 11.5041 8.33257 11.0826 7.9111C10.6612 7.48963 10.0889 7.2538 9.49286 7.25594Z" fill="black"/>
<path fill-rule="evenodd" clip-rule="evenodd" d="M12.5796 1.60352H6.41409C3.75728 1.60352 1.60352 3.75728 1.60352 6.41409V12.5796C1.60352 15.2364 3.75728 17.3902 6.41409 17.3902H12.5796C15.2364 17.3902 17.3902 15.2364 17.3902 12.5796V6.41409C17.3902 3.75728 15.2364 1.60352 12.5796 1.60352ZM9.49286 12.9404C7.59507 12.936 6.0577 11.3987 6.0533 9.50087C6.05005 8.105 6.88884 6.84493 8.17783 6.30925C9.46683 5.77358 10.9516 6.06803 11.9387 7.05506C12.9257 8.04209 13.2201 9.5269 12.6845 10.8159C12.1488 12.1049 10.8887 12.9437 9.49286 12.9404ZM12.4874 5.54158C12.6247 5.86886 12.9463 6.08059 13.3012 6.07735C13.7795 6.07735 14.1671 5.68967 14.1671 5.21144C14.1704 4.85654 13.9586 4.53492 13.6314 4.3976C13.3041 4.26028 12.9263 4.33454 12.6753 4.58551C12.4243 4.83648 12.3501 5.2143 12.4874 5.54158Z" fill="black"/>
</svg>
