<svg width="20" height="20" viewBox="0 0 20 20" fill="none" xmlns="http://www.w3.org/2000/svg">
<path d="M6.20705 3.60433C6.20684 4.02961 6.03769 4.43739 5.73682 4.73795C5.43595 5.03852 5.028 5.20726 4.60272 5.20705C4.17744 5.20684 3.76966 5.03769 3.46909 4.73682C3.16853 4.43595 2.99979 4.028 3 3.60272C3.00021 3.17744 3.16936 2.76966 3.47023 2.46909C3.7711 2.16853 4.17904 1.99979 4.60433 2C5.02961 2.00021 5.43739 2.16936 5.73795 2.47023C6.03852 2.7711 6.20726 3.17904 6.20705 3.60433ZM6.25515 6.39446H3.04811V16.4325H6.25515V6.39446ZM11.3223 6.39446H8.13128V16.4325H11.2902V11.1649C11.2902 8.23049 15.1146 7.95789 15.1146 11.1649V16.4325H18.2816V10.0745C18.2816 5.12767 12.6211 5.31208 11.2902 7.74142L11.3223 6.39446Z" fill="black"/>
</svg>
