<svg width="152" height="23" viewBox="0 0 152 23" fill="none" xmlns="http://www.w3.org/2000/svg">
<g clip-path="url(#clip0_310_665)">
<path d="M119.845 5.01653C120.46 5.06087 121.06 5.23177 121.608 5.51879C122.156 5.80581 122.64 6.20293 123.031 6.68593C123.423 7.16893 123.713 7.72767 123.884 8.32805C124.055 8.92844 124.104 9.55787 124.027 10.1779C124.079 11.2415 123.912 12.3043 123.536 13.2988C123.161 14.2934 122.586 15.198 121.847 15.9551C120.119 17.4481 117.895 18.2186 115.627 18.1102C114.982 18.1226 114.337 18.0924 113.696 18.0197L115.484 7.9685L115.627 7.24409C113.589 7.09471 111.542 7.32175 109.585 7.91417L106.958 22.2756C109.269 22.6413 111.607 22.8049 113.946 22.7646C119.541 22.7646 123.187 21.7866 126.011 19.5772C127.431 18.4182 128.572 16.9465 129.346 15.2738C130.12 13.6012 130.508 11.7717 130.48 9.9244C130.59 8.37557 130.284 6.82543 129.595 5.43844C128.906 4.05146 127.859 2.87934 126.565 2.04645C123.843 0.630779 120.787 0.00408818 117.736 0.235426C115.496 0.211424 113.26 0.387168 111.051 0.760623L110.175 5.25196C113.37 4.70165 116.627 4.62235 119.845 5.01653Z" fill="#1282E1"/>
<path d="M52.2992 17.1323L52.6924 22.5654H58.984L55.8024 0.398438H48.0273L37.0706 22.6016H43.4337L45.8288 17.1685L52.2992 17.1323ZM47.5447 12.6772L49.3321 8.78348C49.9577 7.49765 50.5475 5.88584 51.1195 4.60001C51.2803 5.88584 51.4591 7.49765 51.5842 8.74726L51.9774 12.6772H47.5447Z" fill="#1282E1"/>
<path d="M68.4036 13.148H69.7084C71.9605 13.148 73.9445 13.4197 73.9445 15.5205C73.9445 17.6213 71.7281 18.1103 69.3688 18.1103C68.6002 18.1103 68.0461 18.1103 67.492 18.1103L68.4036 13.148ZM60.9859 22.6016C61.7187 22.6016 65.1505 22.7827 67.5278 22.7284C70.727 22.9849 73.938 22.4115 76.858 21.0622C77.8737 20.5443 78.7294 19.7535 79.3315 18.7761C79.9336 17.7988 80.2589 16.6725 80.2719 15.5205C80.3097 14.4223 79.9758 13.3439 79.3256 12.4644C78.6754 11.5849 77.7479 10.957 76.6971 10.6851C79.0743 9.96064 81.0226 8.51183 81.0226 5.66852C80.9842 4.61912 80.617 3.60936 79.9743 2.78556C79.3316 1.96176 78.4467 1.36671 77.4478 1.08663C75.6262 0.455111 73.7059 0.166634 71.7818 0.235447C69.5168 0.216726 67.255 0.410732 65.0254 0.814975L60.9859 22.6016ZM70.0659 4.98033C70.6917 4.87317 71.3259 4.82467 71.9605 4.83545C73.5513 4.83545 74.9455 5.19765 74.9455 6.64647C74.9455 8.09529 73.3547 8.8197 70.9774 8.8197H69.3152L70.0659 4.98033Z" fill="#1282E1"/>
<path d="M0 22.6016H5.66604L7.14958 15.0315C7.83728 15.1238 8.52943 15.1782 9.22295 15.1945C11.9414 15.3282 14.6319 14.5865 16.9087 13.0756C17.8963 12.3756 18.6973 11.4386 19.24 10.3483C19.7828 9.25793 20.0503 8.0483 20.0188 6.82756C20.086 5.70785 19.8227 4.59323 19.2624 3.62567C18.7022 2.65811 17.8704 1.8814 16.873 1.39449C14.8988 0.5203 12.7509 0.123488 10.5992 0.235436C8.39466 0.182212 6.19187 0.401146 4.03951 0.887404L0 22.6016ZM8.93697 4.98032C9.58693 4.87406 10.2448 4.82559 10.9031 4.83544C12.4939 4.83544 14.1204 5.27008 14.1204 7.38898C14.1204 9.50788 12.333 10.4858 9.93791 10.4858C9.25949 10.4946 8.58217 10.4278 7.91816 10.2866L8.93697 4.98032Z" fill="#1282E1"/>
<path d="M35.5513 13.7819H26.793L26.0781 17.6575H35.873L34.9614 22.6016H19.3396L23.4864 0.398438H38.6077L37.6604 5.34253H28.3659L27.7046 8.83781H36.4807L35.5513 13.7819Z" fill="#1282E1"/>
<path d="M92.9445 23C96.4117 23.0673 99.7693 21.7688 102.31 19.378C103.51 18.168 104.455 16.724 105.088 15.1333C105.721 13.5426 106.029 11.8383 105.992 10.1236C105.992 3.62205 101.738 -3.79863e-07 95.7507 -3.79863e-07C92.2962 -0.0559855 88.9537 1.24159 86.4205 3.62205C85.1805 4.83803 84.2022 6.30076 83.547 7.91831C82.8918 9.53586 82.5739 11.2732 82.6134 13.0213C82.6134 19.3417 86.9746 23.0362 92.8909 23.0362L92.9445 23ZM93.6773 18.1102C90.5137 18.1102 88.8335 16.1543 88.8335 12.6772C88.8335 9.2 91.3001 4.90787 95.0715 4.90787C98.4854 4.81732 99.7366 7.24409 99.7366 10.4858C99.7366 14.4882 97.27 18.1102 93.7131 18.1102H93.6773Z" fill="#1282E1"/>
<path d="M134.215 22.6016L136.003 13.3473L130.855 0.398438H137.075L138.434 5.43308C138.863 6.95434 139.184 7.91419 139.506 9.29056C140.293 8.00474 140.972 6.8819 141.883 5.30631L144.779 0.398438H151.929L141.722 13.0756L139.935 22.5654L134.215 22.6016Z" fill="#1282E1"/>
</g>
<defs>
<clipPath id="clip0_310_665">
<rect width="152" height="23" fill="white"/>
</clipPath>
</defs>
</svg>
