<svg width="20" height="20" viewBox="0 0 20 20" fill="none" xmlns="http://www.w3.org/2000/svg">
<path d="M12.9739 4.26097C12.4259 3.63529 12.1238 2.83177 12.1241 2H9.64661V11.9418C9.6275 12.4799 9.40036 12.9894 9.01303 13.3633C8.62569 13.7372 8.10839 13.9462 7.57004 13.9463C6.43154 13.9463 5.48546 13.0162 5.48546 11.8617C5.48546 10.4826 6.81639 9.44837 8.1874 9.8733V7.33974C5.42132 6.97092 3 9.11965 3 11.8617C3 14.5315 5.21286 16.4317 7.56203 16.4317C10.0796 16.4317 12.1241 14.3872 12.1241 11.8617V6.81859C13.1287 7.54006 14.3348 7.92714 15.5716 7.92502V5.44758C15.5716 5.44758 14.0643 5.51974 12.9739 4.26097Z" fill="black"/>
</svg>
