<svg width="20" height="20" viewBox="0 0 20 20" fill="none" xmlns="http://www.w3.org/2000/svg">
<path d="M8.4141 12.0176L12.5752 9.61233L8.4141 7.20705V12.0176ZM17.6825 5.73982C17.7867 6.11665 17.8589 6.62176 17.907 7.26317C17.9631 7.90458 17.9871 8.4578 17.9871 8.93885L18.0352 9.61233C18.0352 11.3682 17.907 12.659 17.6825 13.4848C17.482 14.2064 17.017 14.6715 16.2954 14.8719C15.9186 14.9761 15.2291 15.0483 14.1707 15.0964C13.1285 15.1525 12.1744 15.1766 11.2924 15.1766L10.0176 15.2247C6.65824 15.2247 4.56564 15.0964 3.73982 14.8719C3.01824 14.6715 2.55322 14.2064 2.35278 13.4848C2.24855 13.108 2.17639 12.6029 2.12828 11.9615C2.07216 11.3201 2.04811 10.7669 2.04811 10.2858L2 9.61233C2 7.85648 2.12828 6.56564 2.35278 5.73982C2.55322 5.01824 3.01824 4.55322 3.73982 4.35278C4.11665 4.24855 4.80617 4.17639 5.86449 4.12828C6.90678 4.07216 7.86088 4.04811 8.74282 4.04811L10.0176 4C13.377 4 15.4696 4.12828 16.2954 4.35278C17.017 4.55322 17.482 5.01824 17.6825 5.73982Z" fill="black"/>
</svg>
